<svg xmlns="http://www.w3.org/2000/svg" viewBox="0 0 128 128">
  <rect width="128" height="128" fill="#0a66c2" rx="20"/>
  <g fill="white">
    <!-- People icons -->
    <circle cx="40" cy="45" r="12"/>
    <path d="M 28 68 Q 28 58 40 58 Q 52 58 52 68 L 52 75 L 28 75 Z"/>

    <circle cx="70" cy="35" r="10"/>
    <path d="M 60 54 Q 60 46 70 46 Q 80 46 80 54 L 80 60 L 60 60 Z"/>

    <circle cx="95" cy="45" r="12"/>
    <path d="M 83 68 Q 83 58 95 58 Q 107 58 107 68 L 107 75 L 83 75 Z"/>

    <!-- Document/List lines -->
    <rect x="25" y="85" width="78" height="5" rx="2"/>
    <rect x="25" y="95" width="60" height="5" rx="2"/>
    <rect x="25" y="105" width="70" height="5" rx="2"/>
  </g>
</svg>
